<svg xmlns="http://www.w3.org/2000/svg" preserveAspectRatio="xMidYMid meet" data-bbox="1 16.752 523.765 46.368" viewBox="0 0 526 78" height="78" width="526" data-type="ugc" role="presentation" aria-hidden="true" aria-label="">
  <g>
    <path stroke="#192240" fill="#192240" d="m15.413 57.48-.626.627h-3.134v.626l2.507 2.507h.627l.626.627h1.88l.627.626h2.507l.626.627h6.267l.627-.627.626.627h1.254l.626-.627h.627l.627-.626h1.88l.626-.627h.627v-.627l-.627-.626h-2.506l-.627-.627h-3.133l-.627-.627h-3.133l-.627-.626h-1.88l-.627.626h-.626l-.627-.626h-3.133l-.627-.627z"/>
    <path stroke="#192240" fill="#192240" d="m9.773 34.92-.626.627H8.52l-.627.626h-1.88l-.626.627H4.76l-.627.627h-.626l-1.88 1.88v.626L1 40.56v3.76l1.253 1.253h1.88l.627-.626h6.267l.626.626h3.134l.626.627h1.254l1.253 1.253h.627l.626.627h1.88l1.254 1.253h.626l.627.627h1.253l1.254 1.253h1.253l.627.627H29.2l.627.627h.626l.627.626h.627l.626.627h1.88l.627.627h.627l.626.626h1.88l.627.627h.627l.626-.627h1.88l.627-.626h.627l1.253-1.254v-.626l.627-.627v-.627l.626-.626v-.627l1.254-1.253v-1.254l.626-.626v-1.88L48 44.32v-8.147l-.627-.626-3.76 3.76H40.48l-.627.626h-3.76l-.626-.626h-1.88l-.627-.627h-2.507l-.626-.627h-1.88l-.627-.626h-.627l-.626-.627h-1.88l-.627-.627h-1.253l-.627-.626h-3.133l-.627-.627z"/>
    <path stroke="#192240" fill="#192240" d="m17.294 18-.627.627h-3.76l-.626.626h-.627l-1.88 1.88h-.627l-1.88 1.88v.627L4.76 26.147v.626l-.626.627v.627l.626-.627h1.88l.627-.627h.627l.626-.626h1.254l.627-.627h2.506l.627-.627h7.52l.627.627h1.253l.627-.627.626.627h.627l.627.627h1.253l.627.626h1.253l.627.627h1.253l.627.627h1.88l.626.626h.627l.627.627h.626l.627.627.627-.627h.626l.627.627h1.253l.627.626h5.013l.627-.626h.627v-.627l-.627-.627v-.626l-1.254-1.254v-.626l-2.506-2.507v-.627l-1.88-1.88H38.6l-1.88-1.88h-.626l-.627-.626h-.626L34.213 18H32.96l-1.88 1.88h-1.254l-.626.627h-1.254l-.626-.627h-3.134l-.626-.627h-2.507l-.627-.626H17.92z"/>
    <path fill="#192240" d="M81.792 16.88c13.696 0 24.064 9.728 24.064 22.72 0 12.928-10.368 22.848-24.064 22.848S57.728 52.592 57.728 39.6c0-13.056 10.368-22.72 24.064-22.72m.128 8.832c-7.552 0-13.824 6.016-13.824 13.888s6.336 14.016 13.824 14.016S95.488 47.472 95.488 39.6s-6.08-13.888-13.568-13.888m50.118-8.832c6.464 0 13.248 2.88 17.664 7.424l-5.888 7.168c-3.072-3.52-7.488-5.824-11.648-5.824-7.68 0-13.632 5.952-13.632 13.76s5.952 13.824 13.632 13.824c4.032 0 8.448-2.048 11.648-5.248l5.952 6.464c-4.736 4.864-11.584 8-18.112 8-13.376 0-23.488-9.92-23.488-22.912 0-12.928 10.304-22.656 23.872-22.656m57.877 8.704h-24v9.728h21.632v8.384h-21.632v9.92h24.704V62h-34.816V17.2h34.112zm38.206 27.712h-20.736L203.865 62h-10.432l19.456-44.8h10.432L242.457 62h-10.816zm-3.264-8.128-7.04-17.408-7.104 17.408zM287.692 62h-9.216L256.78 33.264V62h-9.664V17.2h9.216l21.76 28.8V17.2h9.6zm26.245-45.248c6.272 0 12.544 1.92 17.024 4.864L327.057 30c-4.736-2.816-10.368-4.608-13.952-4.608-3.392 0-5.696 1.216-5.696 3.648 0 8.256 23.872 3.648 23.808 19.776 0 8.768-7.616 13.504-17.536 13.504-7.36 0-14.72-2.816-19.776-7.104l4.032-8.256c4.608 4.096 11.136 6.72 15.872 6.72 4.16 0 6.656-1.536 6.656-4.288 0-8.448-23.872-3.52-23.872-19.392 0-8.128 6.976-13.248 17.344-13.248M386.943 62h-9.088V31.792l-11.904 25.664h-6.592l-11.904-25.664V62h-9.152V17.2h11.328l13.056 27.392L375.679 17.2h11.264zm39.491-8.704h-20.736L402.178 62h-10.433l19.457-44.8h10.432L440.77 62h-10.816zm-3.264-8.128-7.04-17.408-7.104 17.408zM472.948 62l-7.104-12.8H455.54V62h-10.112V17.2h19.456c11.712 0 18.368 5.632 18.368 15.552 0 6.912-2.944 11.904-8.384 14.464L484.404 62zM455.54 40.752h9.344c5.568 0 8.768-2.56 8.768-7.68 0-4.992-3.2-7.488-8.768-7.488h-9.344zm69.225-14.976h-13.696V62h-10.112V25.776h-13.632V17.2h37.44z"/>
  </g>
</svg>