<?xml version="1.0" encoding="utf-8"?>
<!-- Generator: Adobe Illustrator 27.5.0, SVG Export Plug-In . SVG Version: 6.00 Build 0)  -->
<svg version="1.1" xmlns="http://www.w3.org/2000/svg" xmlns:xlink="http://www.w3.org/1999/xlink" x="0px" y="0px"
	 viewBox="0 0 750 500" style="enable-background:new 0 0 750 500;" xml:space="preserve">
<g id="BACKGROUND">
</g>
<g id="OBJECTS">
	<rect x="220.058" y="11.788" style="fill:#F7DD8C;" width="0.586" height="0.586"/>
	<g>
		<path style="fill:#F7DD8C;" d="M557.428,103.443H451.864c-1.487-1.858,0.143-5.219,2.066-6.62
			c1.923-1.401,4.348-2.139,5.935-3.912c2.487-2.778,2.077-6.988,1.845-10.709c-0.232-3.721,0.28-8.188,3.576-9.932
			c3.039-1.609,6.868,0.008,10.165-0.969c3.257-0.965,5.223-4.156,7.218-6.906c6.664-9.186,16.893-15.712,28.031-17.886
			c4.796-0.936,9.914-1.06,14.421,0.826c4.508,1.886,8.253,6.108,8.515,10.988c0.185,3.451-1.309,6.741-2.066,10.113
			c-0.756,3.372-0.525,7.451,2.222,9.549c2.224,1.698,5.289,1.51,8.064,1.865c2.775,0.355,5.962,1.964,6.042,4.761
			c0.087,3.035-3.633,5.475-2.871,8.413c0.466,1.796,2.442,2.752,4.269,3.075c1.827,0.323,3.769,0.268,5.431,1.094
			C556.39,98.019,558.485,101.918,557.428,103.443z"/>
		<path style="fill:#F7DD8C;" d="M347.777,60.081H242.68c-1.037-2.644,1.207-5.571,3.823-6.677c2.615-1.106,5.579-0.821,8.409-0.582
			c2.829,0.24,5.836,0.381,8.34-0.957c4.843-2.587,5.497-9.078,7.699-14.107c3.297-7.529,11.476-12.63,19.687-12.28
			c8.212,0.35,15.926,6.129,18.57,13.912c1.364,4.014,1.641,8.72,4.731,11.622c3.249,3.052,8.375,2.855,12.673,1.675
			c4.299-1.179,8.501-3.158,12.957-3.037C344.026,49.771,348.079,55.633,347.777,60.081z"/>
		<path style="fill:#F7DD8C;" d="M352.611,88.798h60.032c0.592-1.51-0.69-3.182-2.184-3.814c-1.494-0.632-3.187-0.469-4.803-0.332
			c-1.616,0.137-3.333,0.218-4.764-0.547c-2.766-1.478-3.14-5.185-4.398-8.058c-1.883-4.301-6.555-7.215-11.245-7.014
			c-4.691,0.2-9.097,3.501-10.607,7.946c-0.779,2.293-0.937,4.981-2.702,6.639c-1.856,1.743-4.784,1.631-7.239,0.957
			c-2.455-0.674-4.856-1.804-7.401-1.735C354.753,82.909,352.438,86.258,352.611,88.798z"/>
	</g>
	<g>
		<path style="fill:#FBEED1;" d="M426.591,471.016c39.596-8.566,78.716-22.812,110.621-47.778
			c31.905-24.966,56.01-61.694,59.552-102.05c5.104-58.146-33.378-113.375-83.006-144.1
			c-49.629-30.725-108.813-41.393-166.66-49.185c-54.849-7.388-111.081-12.677-165.163-0.919
			C73.873,150.479,17.176,240.516,45.324,347.57c21.279,80.93,125.533,110.617,198.062,124.764
			C303.724,484.104,366.456,484.027,426.591,471.016z"/>
		<g>
			<defs>
				<path id="SVGID_1_" d="M426.591,471.016c39.596-8.566,78.716-22.812,110.621-47.778c31.905-24.966,56.01-61.694,59.552-102.05
					c5.104-58.146,32.733-190.261-16.896-220.986c-49.629-30.725-134.703-43.515-192.55-51.307
					C332.469,41.507,136.306,9.74,82.224,21.498C-25.838,44.993,17.176,240.516,45.324,347.57
					c21.279,80.93,125.533,110.617,198.062,124.764C303.724,484.104,366.456,484.027,426.591,471.016z"/>
			</defs>
			<clipPath id="SVGID_00000133498816028790416840000009710724017099484288_">
				<use xlink:href="#SVGID_1_"  style="overflow:visible;"/>
			</clipPath>
			<g style="clip-path:url(#SVGID_00000133498816028790416840000009710724017099484288_);">
				<g>
					<g>
						<polyline style="fill:none;stroke:#304567;stroke-width:5;stroke-linecap:round;stroke-miterlimit:10;" points="
							56.448,326.188 56.448,48.78 225.497,48.78 						"/>
						
							<line style="fill:none;stroke:#304567;stroke-width:5;stroke-linecap:round;stroke-miterlimit:10;" x1="97.938" y1="48.78" x2="97.938" y2="326.188"/>
						
							<line style="fill:none;stroke:#304567;stroke-width:5;stroke-linecap:round;stroke-miterlimit:10;" x1="56.448" y1="62.36" x2="97.938" y2="110.622"/>
						
							<line style="fill:none;stroke:#304567;stroke-width:5;stroke-linecap:round;stroke-miterlimit:10;" x1="56.448" y1="115.999" x2="97.938" y2="164.262"/>
						
							<line style="fill:none;stroke:#304567;stroke-width:5;stroke-linecap:round;stroke-miterlimit:10;" x1="56.448" y1="169.638" x2="97.938" y2="217.9"/>
						
							<line style="fill:none;stroke:#304567;stroke-width:5;stroke-linecap:round;stroke-miterlimit:10;" x1="56.448" y1="223.277" x2="97.938" y2="271.539"/>
						
							<line style="fill:none;stroke:#304567;stroke-width:5;stroke-linecap:round;stroke-miterlimit:10;" x1="56.448" y1="276.916" x2="97.938" y2="325.178"/>
						
							<line style="fill:none;stroke:#304567;stroke-width:5;stroke-linecap:round;stroke-miterlimit:10;" x1="97.938" y1="62.36" x2="56.448" y2="110.622"/>
						
							<line style="fill:none;stroke:#304567;stroke-width:5;stroke-linecap:round;stroke-miterlimit:10;" x1="97.938" y1="115.999" x2="56.448" y2="164.262"/>
						
							<line style="fill:none;stroke:#304567;stroke-width:5;stroke-linecap:round;stroke-miterlimit:10;" x1="97.938" y1="169.638" x2="56.448" y2="217.9"/>
						<g>
							
								<line style="fill:none;stroke:#304567;stroke-width:5;stroke-linecap:round;stroke-miterlimit:10;" x1="351.191" y1="374.925" x2="351.191" y2="97.517"/>
							
								<line style="fill:none;stroke:#304567;stroke-width:5;stroke-linecap:round;stroke-miterlimit:10;" x1="392.681" y1="97.517" x2="392.681" y2="374.925"/>
							
								<line style="fill:none;stroke:#304567;stroke-width:5;stroke-linecap:round;stroke-miterlimit:10;" x1="351.191" y1="111.097" x2="392.681" y2="159.359"/>
							
								<line style="fill:none;stroke:#304567;stroke-width:5;stroke-linecap:round;stroke-miterlimit:10;" x1="351.191" y1="164.736" x2="392.681" y2="212.998"/>
							
								<line style="fill:none;stroke:#304567;stroke-width:5;stroke-linecap:round;stroke-miterlimit:10;" x1="351.191" y1="218.375" x2="392.681" y2="266.637"/>
							
								<line style="fill:none;stroke:#304567;stroke-width:5;stroke-linecap:round;stroke-miterlimit:10;" x1="392.681" y1="111.097" x2="351.191" y2="159.359"/>
							
								<line style="fill:none;stroke:#304567;stroke-width:5;stroke-linecap:round;stroke-miterlimit:10;" x1="392.681" y1="164.736" x2="351.191" y2="212.998"/>
							
								<line style="fill:none;stroke:#304567;stroke-width:5;stroke-linecap:round;stroke-miterlimit:10;" x1="392.681" y1="218.375" x2="351.191" y2="266.637"/>
						</g>
						
							<line style="fill:none;stroke:#304567;stroke-width:5;stroke-linecap:round;stroke-miterlimit:10;" x1="97.938" y1="223.277" x2="56.448" y2="271.539"/>
						
							<line style="fill:none;stroke:#304567;stroke-width:5;stroke-linecap:round;stroke-miterlimit:10;" x1="97.938" y1="276.916" x2="56.448" y2="325.178"/>
					</g>
					<g>
						<g>
							<path style="fill:#DF4268;" d="M458.753,358.388c0,1.1-0.9,2-2,2H256.285c-1.1,0-2-0.9-2-2V273.28c0-1.1,0.9-2,2-2h200.467
								c1.1,0,2,0.9,2,2V358.388z"/>
						</g>
					</g>
					<g>
						<g>
							<path style="fill:#CAD1DB;" d="M223.406,358.388c0,1.1-0.9,2-2,2H39.895c-1.1,0-2-0.9-2-2V273.28c0-1.1,0.9-2,2-2h181.511
								c1.1,0,2,0.9,2,2V358.388z"/>
						</g>
					</g>
					<g>
						<g>
							<path style="fill:#FFFFFF;" d="M247.436,358.388c0,1.1-0.9,2-2,2H63.925c-1.1,0-2-0.9-2-2V273.28c0-1.1,0.9-2,2-2h181.511
								c1.1,0,2,0.9,2,2V358.388z"/>
						</g>
					</g>
					<g>
						<path style="opacity:0.5;fill:#CAD1DB;" d="M79.916,348.557h-5.519c-1.279,0-2.316-1.037-2.316-2.316v-65.844
							c0-1.279,1.037-2.316,2.316-2.316h5.519c1.279,0,2.316,1.037,2.316,2.316v65.844C82.231,347.52,81.194,348.557,79.916,348.557
							z"/>
						<path style="opacity:0.5;fill:#CAD1DB;" d="M99.566,348.557h-5.519c-1.279,0-2.316-1.037-2.316-2.316v-65.844
							c0-1.279,1.037-2.316,2.316-2.316h5.519c1.279,0,2.316,1.037,2.316,2.316v65.844
							C101.882,347.52,100.845,348.557,99.566,348.557z"/>
						<path style="opacity:0.5;fill:#CAD1DB;" d="M119.217,348.557h-5.518c-1.279,0-2.316-1.037-2.316-2.316v-65.844
							c0-1.279,1.037-2.316,2.316-2.316h5.518c1.279,0,2.316,1.037,2.316,2.316v65.844
							C121.532,347.52,120.495,348.557,119.217,348.557z"/>
						<path style="opacity:0.5;fill:#CAD1DB;" d="M138.867,348.557h-5.518c-1.279,0-2.316-1.037-2.316-2.316v-65.844
							c0-1.279,1.037-2.316,2.316-2.316h5.518c1.279,0,2.316,1.037,2.316,2.316v65.844
							C141.183,347.52,140.146,348.557,138.867,348.557z"/>
						<path style="opacity:0.5;fill:#CAD1DB;" d="M158.518,348.557h-5.518c-1.279,0-2.316-1.037-2.316-2.316v-65.844
							c0-1.279,1.037-2.316,2.316-2.316h5.518c1.279,0,2.316,1.037,2.316,2.316v65.844
							C160.833,347.52,159.797,348.557,158.518,348.557z"/>
						<path style="opacity:0.5;fill:#CAD1DB;" d="M178.168,348.557h-5.519c-1.279,0-2.316-1.037-2.316-2.316v-65.844
							c0-1.279,1.037-2.316,2.316-2.316h5.519c1.279,0,2.316,1.037,2.316,2.316v65.844
							C180.484,347.52,179.447,348.557,178.168,348.557z"/>
						<path style="opacity:0.5;fill:#CAD1DB;" d="M197.474,348.557h-5.518c-1.279,0-2.316-1.037-2.316-2.316v-65.844
							c0-1.279,1.037-2.316,2.316-2.316h5.518c1.279,0,2.316,1.037,2.316,2.316v65.844
							C199.79,347.52,198.753,348.557,197.474,348.557z"/>
						<path style="opacity:0.5;fill:#CAD1DB;" d="M216.78,348.557h-5.518c-1.279,0-2.316-1.037-2.316-2.316v-65.844
							c0-1.279,1.037-2.316,2.316-2.316h5.518c1.279,0,2.316,1.037,2.316,2.316v65.844
							C219.096,347.52,218.059,348.557,216.78,348.557z"/>
						<path style="opacity:0.5;fill:#CAD1DB;" d="M236.086,348.557h-5.518c-1.279,0-2.316-1.037-2.316-2.316v-65.844
							c0-1.279,1.037-2.316,2.316-2.316h5.518c1.279,0,2.316,1.037,2.316,2.316v65.844
							C238.402,347.52,237.365,348.557,236.086,348.557z"/>
					</g>
					<g>
						<path style="opacity:0.5;fill:#FFFFFF;" d="M271.368,348.557h-5.518c-1.279,0-2.316-1.037-2.316-2.316v-65.844
							c0-1.279,1.037-2.316,2.316-2.316h5.518c1.279,0,2.316,1.037,2.316,2.316v65.844
							C273.684,347.52,272.647,348.557,271.368,348.557z"/>
						<path style="opacity:0.5;fill:#FFFFFF;" d="M291.018,348.557H285.5c-1.279,0-2.316-1.037-2.316-2.316v-65.844
							c0-1.279,1.037-2.316,2.316-2.316h5.519c1.279,0,2.316,1.037,2.316,2.316v65.844
							C293.334,347.52,292.297,348.557,291.018,348.557z"/>
						<path style="opacity:0.5;fill:#FFFFFF;" d="M310.669,348.557h-5.518c-1.279,0-2.316-1.037-2.316-2.316v-65.844
							c0-1.279,1.037-2.316,2.316-2.316h5.518c1.279,0,2.316,1.037,2.316,2.316v65.844
							C312.985,347.52,311.948,348.557,310.669,348.557z"/>
						<path style="opacity:0.5;fill:#FFFFFF;" d="M330.319,348.557h-5.518c-1.279,0-2.316-1.037-2.316-2.316v-65.844
							c0-1.279,1.037-2.316,2.316-2.316h5.518c1.279,0,2.316,1.037,2.316,2.316v65.844
							C332.635,347.52,331.598,348.557,330.319,348.557z"/>
						<path style="opacity:0.5;fill:#FFFFFF;" d="M349.97,348.557h-5.519c-1.279,0-2.316-1.037-2.316-2.316v-65.844
							c0-1.279,1.037-2.316,2.316-2.316h5.519c1.279,0,2.316,1.037,2.316,2.316v65.844
							C352.286,347.52,351.249,348.557,349.97,348.557z"/>
						<path style="opacity:0.5;fill:#FFFFFF;" d="M369.62,348.557h-5.518c-1.279,0-2.316-1.037-2.316-2.316v-65.844
							c0-1.279,1.037-2.316,2.316-2.316h5.518c1.279,0,2.316,1.037,2.316,2.316v65.844
							C371.936,347.52,370.899,348.557,369.62,348.557z"/>
						<path style="opacity:0.5;fill:#FFFFFF;" d="M389.271,348.557h-5.518c-1.279,0-2.316-1.037-2.316-2.316v-65.844
							c0-1.279,1.037-2.316,2.316-2.316h5.518c1.279,0,2.316,1.037,2.316,2.316v65.844
							C391.587,347.52,390.55,348.557,389.271,348.557z"/>
						<path style="opacity:0.5;fill:#FFFFFF;" d="M408.577,348.557h-5.519c-1.279,0-2.316-1.037-2.316-2.316v-65.844
							c0-1.279,1.037-2.316,2.316-2.316h5.519c1.279,0,2.316,1.037,2.316,2.316v65.844
							C410.893,347.52,409.856,348.557,408.577,348.557z"/>
						<path style="opacity:0.5;fill:#FFFFFF;" d="M427.883,348.557h-5.518c-1.279,0-2.316-1.037-2.316-2.316v-65.844
							c0-1.279,1.037-2.316,2.316-2.316h5.518c1.279,0,2.316,1.037,2.316,2.316v65.844
							C430.199,347.52,429.162,348.557,427.883,348.557z"/>
						<path style="opacity:0.5;fill:#FFFFFF;" d="M447.189,348.557h-5.518c-1.279,0-2.316-1.037-2.316-2.316v-65.844
							c0-1.279,1.037-2.316,2.316-2.316h5.518c1.279,0,2.316,1.037,2.316,2.316v65.844
							C449.505,347.52,448.468,348.557,447.189,348.557z"/>
					</g>
					<g>
						<path style="fill:#495375;" d="M-90.246,376.352v-31.112c0-1.1,0.9-2,2-2h363.76c1.1,0,2-0.046,2-0.102
							s0.368-0.924,0.817-1.928l17.578-17.579c1.004-0.449,2.726-0.816,3.826-0.816h191.3c1.1,0,1.611,0.811,1.135,1.803
							l-68.337,142.402c-0.476,0.992-1.485,2.455-2.243,3.253l-42.091,25.639c-1.056,0.308-2.82,0.559-3.92,0.559h-409.09
							c-1.1,0-2.758-0.484-3.686-1.076l-7.232-11.754c-0.111-1.094-0.161-2.065-0.112-2.157c0.049-0.092,0.172-1.063,0.274-2.159
							l-6.934-28.181c-0.598-0.923-1.218-1.771-1.378-1.884c-0.16-0.113-0.291-0.205-0.291-0.205"/>
					</g>
					<g>
						<g>
							<path style="fill:#21255C;" d="M299.734,322.814c-1.1,0-2.846,0.308-3.879,0.685l-16.414,12.35
								c-0.627,0.904-0.24,1.643,0.86,1.643h186.321c1.1,0,1.611,0.811,1.135,1.803L399.42,481.697
								c-0.476,0.992-1.333,2.572-1.904,3.513l-5.605,7.998c-0.692,0.855-0.456,1.148,0.526,0.652l29.251-23.5
								c0.704-0.846,1.669-2.349,2.145-3.34l68.337-142.402c0.476-0.992-0.035-1.803-1.135-1.803H299.734z"/>
						</g>
						<g>
							<path style="fill:#21255C;" d="M251.101,357.917c1.1,0,2-0.046,2-0.102c0-0.056,0.191-0.982,0.424-2.057l4.544-10.876
								c0.628-0.903,0.241-1.642-0.859-1.642H-88.246c-1.1,0-2,0.9-2,2v10.678c0,1.1,0.9,2,2,2H251.101z"/>
						</g>
					</g>
					<g>
						<defs>
							<path id="SVGID_00000003102725392627019790000016087020843903467442_" d="M-90.246,376.352v-33.112h367.76v-0.205
								c0-11.178,9.048-20.221,20.221-20.221h195.3l0,0l-70.067,146.009c-8.763,16.977-26.278,27.648-45.389,27.648h-413.09
								c-7.621,0-12.557-8.019-9.119-14.821"/>
						</defs>
						<clipPath id="SVGID_00000129190413495400455710000007712028655596129457_">
							<use xlink:href="#SVGID_00000003102725392627019790000016087020843903467442_"  style="overflow:visible;"/>
						</clipPath>
						<g style="clip-path:url(#SVGID_00000129190413495400455710000007712028655596129457_);">
							<path style="fill:#F4D071;" d="M491.034,412.6c1.1,0,1.611,0.811,1.135,1.803l-68.337,142.402
								c-0.476,0.992-1.485,2.456-2.243,3.253l-42.091,25.638c-1.056,0.308-2.82,0.56-3.92,0.56h-409.09
								c-1.1,0-2.758-0.484-3.686-1.076l-7.232-11.754c-0.111-1.094-0.161-2.065-0.112-2.157c0.049-0.092,0.172-1.063,0.274-2.159
								l-6.934-28.181c-0.598-0.923-1.218-1.771-1.378-1.884c-0.16-0.113-0.431-1.094-0.601-2.18l-7.148-68.809
								c0.312-1.055,0.568-2.818,0.568-3.918v-29.112c0-1.1,0.9-2,2-2h333.275c1.1,0,2-0.046,2-0.102s0.368-0.924,0.817-1.928
								l17.578-17.579c1.004-0.449,2.726-0.816,3.826-0.816H491.034z"/>
						</g>
					</g>
					<g>
						<g>
							
								<rect x="113.547" y="101.482" transform="matrix(0.8944 -0.4473 0.4473 0.8944 -29.4594 79.5011)" style="fill:#304567;" width="80.167" height="1.31"/>
						</g>
						<g>
							
								<rect x="224.04" y="62.054" transform="matrix(0.4467 -0.8947 0.8947 0.4467 32.9353 257.5334)" style="fill:#304567;" width="1.31" height="80.166"/>
						</g>
						<g>
							<path style="fill:#E8916A;" d="M122.289,118.435c0-1.1-0.9-2-2-2h-3.459c-1.1,0-2,0.9-2,2v2.633c0,1.1,0.9,2,2,2h3.459
								c1.1,0,2-0.9,2-2V118.435z"/>
						</g>
						<g>
							<g>
								<g>
									<path style="fill:#D8744C;" d="M290.147,185.457c0,1.1-0.9,2-2,2H143.994c-1.1,0-2-0.9-2-2v-60.57c0-1.1,0.9-2,2-2h144.153
										c1.1,0,2,0.9,2,2V185.457z"/>
								</g>
							</g>
						</g>
						<g>
							<g>
								<g>
									<path style="fill:#E8916A;" d="M262.983,185.457c0,1.1-0.9,2-2,2H116.83c-1.1,0-2-0.9-2-2v-60.57c0-1.1,0.9-2,2-2h144.154
										c1.1,0,2,0.9,2,2V185.457z"/>
								</g>
							</g>
						</g>
						<g>
							<g>
								<path style="fill:#E8916A;" d="M262.983,118.616c0-1.1-0.9-2-2-2h-3.052c-1.1,0-2,0.9-2,2v2.271c0,1.1,0.9,2,2,2h3.052
									c1.1,0,2-0.9,2-2V118.616z"/>
							</g>
						</g>
						<g>
							<path style="fill:#304567;" d="M192.619,89.487c-0.004,0-0.008,0-0.012,0c-0.133-0.003-3.278-0.057-5.302-2.135
								c-1.124-1.158-1.681-2.669-1.648-4.493c0.089-5.158,4.218-6.544,6.387-6.558c0.003,0,0.005,0,0.005,0
								c0.723,0,1.309,0.582,1.313,1.302c0.003,0.72-0.576,1.31-1.296,1.318c-0.625,0.011-3.725,0.265-3.789,3.981
								c-0.019,1.118,0.276,1.976,0.905,2.62c1.253,1.288,3.429,1.345,3.451,1.345c0.724,0.005,1.303,0.598,1.296,1.324
								C193.922,88.908,193.337,89.487,192.619,89.487z"/>
						</g>
						<g>
							<g>
								<path style="fill:#E8916A;" d="M199.677,76.326c0,1.1-0.9,2-2,2h-13.666c-1.1,0-2-0.9-2-2v-6.065c0-1.1,0.9-2,2-2h13.666
									c1.1,0,2,0.9,2,2V76.326z"/>
							</g>
						</g>
						<g>
							<g>
								<polygon style="fill:#304567;" points="185.981,71.698 185.981,51.722 184.666,51.722 184.666,71.698 184.008,71.698 
									184.008,74.329 186.639,74.329 186.639,71.698 								"/>
							</g>
							<g>
								<polygon style="fill:#304567;" points="197.021,71.698 197.021,51.722 195.706,51.722 195.706,71.698 195.048,71.698 
									195.048,74.329 197.679,74.329 197.679,71.698 								"/>
							</g>
						</g>
						<g>
							<path style="opacity:0.5;fill:#FFFFFF;" d="M130.398,181.162h-5.695c-1.32,0-2.39-1.07-2.39-2.39v-47.201
								c0-1.32,1.07-2.39,2.39-2.39h5.695c1.32,0,2.39,1.07,2.39,2.39v47.201C132.788,180.092,131.718,181.162,130.398,181.162z"/>
							<path style="opacity:0.5;fill:#FFFFFF;" d="M150.678,181.162h-5.695c-1.32,0-2.39-1.07-2.39-2.39v-47.201
								c0-1.32,1.07-2.39,2.39-2.39h5.695c1.32,0,2.39,1.07,2.39,2.39v47.201C153.067,180.092,151.997,181.162,150.678,181.162z"/>
							<path style="opacity:0.5;fill:#FFFFFF;" d="M170.957,181.162h-5.695c-1.32,0-2.39-1.07-2.39-2.39v-47.201
								c0-1.32,1.07-2.39,2.39-2.39h5.695c1.32,0,2.39,1.07,2.39,2.39v47.201C173.346,180.092,172.276,181.162,170.957,181.162z"/>
							<path style="opacity:0.5;fill:#FFFFFF;" d="M191.236,181.162h-5.695c-1.32,0-2.39-1.07-2.39-2.39v-47.201
								c0-1.32,1.07-2.39,2.39-2.39h5.695c1.32,0,2.39,1.07,2.39,2.39v47.201C193.625,180.092,192.555,181.162,191.236,181.162z"/>
							<path style="opacity:0.5;fill:#FFFFFF;" d="M211.515,181.162h-5.695c-1.32,0-2.39-1.07-2.39-2.39v-47.201
								c0-1.32,1.07-2.39,2.39-2.39h5.695c1.32,0,2.39,1.07,2.39,2.39v47.201C213.904,180.092,212.835,181.162,211.515,181.162z"/>
							<path style="opacity:0.5;fill:#FFFFFF;" d="M231.794,181.162h-5.695c-1.32,0-2.39-1.07-2.39-2.39v-47.201
								c0-1.32,1.07-2.39,2.39-2.39h5.695c1.32,0,2.39,1.07,2.39,2.39v47.201C234.184,180.092,233.114,181.162,231.794,181.162z"/>
							<path style="opacity:0.5;fill:#FFFFFF;" d="M252.073,181.162h-5.695c-1.32,0-2.39-1.07-2.39-2.39v-47.201
								c0-1.32,1.07-2.39,2.39-2.39h5.695c1.32,0,2.39,1.07,2.39,2.39l0,47.201C254.463,180.092,253.393,181.162,252.073,181.162z"
								/>
						</g>
					</g>
					
						<line style="fill:none;stroke:#495375;stroke-width:5;stroke-linecap:round;stroke-miterlimit:10;" x1="-3.033" y1="198.984" x2="-3.033" y2="118.141"/>
					<g>
						<defs>
							<path id="SVGID_00000161608311962856691330000018087928629146756488_" d="M-107.888,188.346v16.556h27.594V342.87H30.079
								V204.406l27.677-16.06 M-19.589,298.72v-38.631h33.112L-19.589,298.72z M13.523,238.014h-33.112v-22.075h33.112V238.014z"/>
						</defs>
						<clipPath id="SVGID_00000075856131519148535990000007033339250175099325_">
							<use xlink:href="#SVGID_00000161608311962856691330000018087928629146756488_"  style="overflow:visible;"/>
						</clipPath>
						
							<rect x="-119.257" y="181.79" style="clip-path:url(#SVGID_00000075856131519148535990000007033339250175099325_);fill:#F4D071;" width="89.225" height="163.042"/>
					</g>
					<rect x="-48.892" y="206.834" style="fill:#495375;" width="10.038" height="10.038"/>
					<rect x="-48.892" y="224.476" style="fill:#495375;" width="10.038" height="10.038"/>
					<rect x="-48.892" y="242.118" style="fill:#495375;" width="10.038" height="10.038"/>
					<rect x="-48.892" y="259.76" style="fill:#495375;" width="10.038" height="10.038"/>
					<rect x="-48.892" y="277.402" style="fill:#495375;" width="10.038" height="10.038"/>
					<rect x="-48.892" y="295.044" style="fill:#495375;" width="10.038" height="10.038"/>
					<rect x="-48.892" y="308.507" style="fill:#495375;" width="10.038" height="10.038"/>
					
						<polyline style="fill:none;stroke:#FFFFFF;stroke-width:3;stroke-linecap:round;stroke-linejoin:round;stroke-miterlimit:10;" points="
						-53.961,433.026 277.514,433.026 295.597,412.713 434.95,412.713 					"/>
					
						<ellipse transform="matrix(0.1597 -0.9872 0.9872 0.1597 -86.8242 624.4008)" style="fill:none;stroke:#FFFFFF;stroke-width:3;stroke-linecap:round;stroke-linejoin:round;stroke-miterlimit:10;" cx="323.362" cy="363.201" rx="9.273" ry="9.273"/>
					
						<ellipse transform="matrix(0.1427 -0.9898 0.9898 0.1427 -54.635 663.3276)" style="fill:none;stroke:#FFFFFF;stroke-width:3;stroke-linecap:round;stroke-linejoin:round;stroke-miterlimit:10;" cx="355.578" cy="363.201" rx="9.273" ry="9.273"/>
					
						<ellipse transform="matrix(0.1747 -0.9846 0.9846 0.1747 -37.5542 681.6002)" style="fill:none;stroke:#FFFFFF;stroke-width:3;stroke-linecap:round;stroke-linejoin:round;stroke-miterlimit:10;" cx="387.795" cy="363.201" rx="9.273" ry="9.273"/>
				</g>
				<g>
					<g>
						<g>
							<path style="fill:#D8744C;" d="M449.505,269.866c0,1.1-0.9,2-2,2H315.19c-1.1,0-2-0.9-2-2v-60.57c0-1.1,0.9-2,2-2h132.315
								c1.1,0,2,0.9,2,2V269.866z"/>
						</g>
					</g>
				</g>
				<g>
					<g>
						<g>
							<path style="fill:#E8916A;" d="M424.511,269.866c0,1.1-0.9,2-2,2H290.196c-1.1,0-2-0.9-2-2v-60.57c0-1.1,0.9-2,2-2h132.315
								c1.1,0,2,0.9,2,2V269.866z"/>
						</g>
					</g>
				</g>
				<g>
					<path style="opacity:0.5;fill:#FFFFFF;" d="M302.33,265.571h-4.858c-1.32,0-2.39-1.07-2.39-2.39V215.98
						c0-1.32,1.07-2.39,2.39-2.39h4.858c1.32,0,2.39,1.07,2.39,2.39v47.201C304.719,264.501,303.649,265.571,302.33,265.571z"/>
					<path style="opacity:0.5;fill:#FFFFFF;" d="M320.988,265.571h-4.858c-1.32,0-2.39-1.07-2.39-2.39V215.98
						c0-1.32,1.07-2.39,2.39-2.39h4.858c1.32,0,2.39,1.07,2.39,2.39v47.201C323.378,264.501,322.308,265.571,320.988,265.571z"/>
					<path style="opacity:0.5;fill:#FFFFFF;" d="M339.647,265.571h-4.858c-1.32,0-2.39-1.07-2.39-2.39V215.98
						c0-1.32,1.07-2.39,2.39-2.39h4.858c1.32,0,2.39,1.07,2.39,2.39v47.201C342.037,264.501,340.967,265.571,339.647,265.571z"/>
					<path style="opacity:0.5;fill:#FFFFFF;" d="M358.306,265.571h-4.858c-1.32,0-2.39-1.07-2.39-2.39V215.98
						c0-1.32,1.07-2.39,2.39-2.39h4.858c1.32,0,2.39,1.07,2.39,2.39v47.201C360.695,264.501,359.625,265.571,358.306,265.571z"/>
					<path style="opacity:0.5;fill:#FFFFFF;" d="M376.964,265.571h-4.858c-1.32,0-2.39-1.07-2.39-2.39V215.98
						c0-1.32,1.07-2.39,2.39-2.39h4.858c1.32,0,2.39,1.07,2.39,2.39v47.201C379.354,264.501,378.284,265.571,376.964,265.571z"/>
					<path style="opacity:0.5;fill:#FFFFFF;" d="M395.623,265.571h-4.858c-1.32,0-2.39-1.07-2.39-2.39V215.98
						c0-1.32,1.07-2.39,2.39-2.39h4.858c1.32,0,2.39,1.07,2.39,2.39v47.201C398.012,264.501,396.943,265.571,395.623,265.571z"/>
					<path style="opacity:0.5;fill:#FFFFFF;" d="M414.281,265.571h-4.858c-1.32,0-2.39-1.07-2.39-2.39V215.98
						c0-1.32,1.07-2.39,2.39-2.39h4.858c1.32,0,2.39,1.07,2.39,2.39v47.201C416.671,264.501,415.601,265.571,414.281,265.571z"/>
				</g>
			</g>
		</g>
		<g>
			<defs>
				
					<rect id="SVGID_00000130620933697024879470000017232479628587862689_" x="125" y="-125" transform="matrix(-1.836970e-16 1 -1 -1.836970e-16 625 -125)" width="500" height="750"/>
			</defs>
			<clipPath id="SVGID_00000067950712608519074460000009196868327683705270_">
				<use xlink:href="#SVGID_00000130620933697024879470000017232479628587862689_"  style="overflow:visible;"/>
			</clipPath>
			<g style="clip-path:url(#SVGID_00000067950712608519074460000009196868327683705270_);">
				<g>
					<g>
						<g>
							<g>
								<polygon style="fill:#F2C9AD;" points="648.08,854.517 645.342,876.262 617.608,876.262 615.996,853.375 								"/>
							</g>
						</g>
					</g>
					<g>
						<g>
							<g>
								<g>
									<g>
										<polygon style="fill:#F2C9AD;" points="573.933,850.989 570.563,876.26 542.829,876.26 543.899,850.237 										"/>
									</g>
								</g>
							</g>
						</g>
						<g>
							<g>
								<g>
									<g>
										<g>
											<g>
												<path style="fill:#3E4870;" d="M474.388,920.065h104.898c0.78-1.418,1.205-3.428,1.38-5.826
													c0.656-8.873-2.173-23.034-3.559-31.963c-0.169-1.043-0.312-2.017-0.425-2.897c-0.193-1.492-0.312-2.735-0.312-3.646
													c0-7.287-6.45-6.038-6.45-6.038c-10.615,10.409-22.634-5.201-29.652-0.081c0,0-3.022,2.167-11.352,9.659
													c-8.323,7.493-22.491,12.438-34.548,17.483c-15.566,6.506-19.98,13.006-20.842,17.483
													C472.845,917.786,474.388,920.065,474.388,920.065z"/>
											</g>
										</g>
									</g>
								</g>
							</g>
							<g>
								<g>
									<g>
										<g>
											<g>
												<path style="fill:#402C49;" d="M474.388,920.065h104.898c0.78-1.418,1.205-3.428,1.38-5.826h-107.14
													C472.845,917.786,474.388,920.065,474.388,920.065z"/>
											</g>
										</g>
									</g>
								</g>
							</g>
							<g>
								<g>
									<g>
										<g>
											<g>
												<g>
													<path style="fill:#402C49;" d="M568.583,920.065h3.116c-3.109-3.553-6.019-9.004-5.638-16.797
														c0.506-10.365,6.725-17.352,11.045-20.992c-0.169-1.043-0.312-2.017-0.425-2.897
														c-4.658,3.559-12.507,11.352-13.118,23.764C563.201,910.586,565.642,916.137,568.583,920.065z"/>
												</g>
											</g>
										</g>
									</g>
								</g>
							</g>
							<g>
								<g>
									<g>
										<g>
											<g>
												<path style="fill:#402C49;" d="M530.694,885.462c0.776,0,1.481-0.526,1.676-1.313c0.23-0.926-0.334-1.864-1.261-2.094
													l-6.552-1.627c-0.926-0.232-1.864,0.334-2.094,1.261c-0.23,0.926,0.334,1.864,1.261,2.094l6.553,1.627
													C530.416,885.445,530.556,885.462,530.694,885.462z"/>
											</g>
										</g>
									</g>
								</g>
							</g>
							<g>
								<g>
									<g>
										<path style="fill:#402C49;" d="M537.206,880.006c0.776,0,1.481-0.526,1.676-1.313c0.23-0.926-0.334-1.864-1.261-2.094
											l-6.553-1.627c-0.926-0.232-1.864,0.334-2.094,1.261c-0.23,0.926,0.335,1.864,1.261,2.094l6.553,1.627
											C536.928,879.989,537.068,880.006,537.206,880.006z"/>
									</g>
								</g>
							</g>
							<g>
								<g>
									<g>
										<g>
											<g>
												<path style="fill:#402C49;" d="M524.142,889.271c0.775,0,1.481-0.526,1.676-1.313c0.23-0.926-0.334-1.864-1.261-2.094
													l-6.553-1.627c-0.926-0.232-1.864,0.334-2.094,1.261c-0.23,0.926,0.335,1.864,1.261,2.094l6.553,1.627
													C523.864,889.254,524.004,889.271,524.142,889.271z"/>
											</g>
										</g>
									</g>
								</g>
							</g>
							<g>
								<g>
									<g>
										<g>
											<g>
												<path style="fill:#402C49;" d="M517.589,892.932c0.776,0,1.481-0.526,1.676-1.313c0.23-0.926-0.334-1.864-1.261-2.094
													l-6.553-1.627c-0.927-0.232-1.864,0.335-2.094,1.261c-0.23,0.926,0.335,1.864,1.261,2.094l6.553,1.627
													C517.311,892.915,517.451,892.932,517.589,892.932z"/>
											</g>
										</g>
									</g>
								</g>
							</g>
							<g>
								<g>
									<g>
										<g>
											<g>
												<path style="fill:#402C49;" d="M510.444,896.318c0.776,0,1.481-0.526,1.676-1.313c0.23-0.926-0.335-1.865-1.261-2.094
													l-6.553-1.627c-0.927-0.23-1.864,0.334-2.094,1.261c-0.23,0.926,0.335,1.864,1.261,2.094l6.553,1.627
													C510.166,896.302,510.306,896.318,510.444,896.318z"/>
											</g>
										</g>
									</g>
								</g>
							</g>
							<g>
								<g>
									<g>
										<g>
											<g>
												<path style="fill:#402C49;" d="M502.696,899.206c0.775,0,1.481-0.526,1.676-1.313c0.23-0.926-0.335-1.864-1.261-2.094
													l-6.553-1.627c-0.927-0.232-1.864,0.334-2.094,1.261c-0.23,0.926,0.335,1.864,1.261,2.094l6.553,1.627
													C502.418,899.19,502.558,899.206,502.696,899.206z"/>
											</g>
										</g>
									</g>
								</g>
							</g>
						</g>
						<g>
							<g>
								<g>
									<path style="fill:#5DABFF;" d="M690.824,478.189c-0.078,1.123-0.214,4.711-0.536,5.754
										c-0.011,0.039-0.022,0.083-0.033,0.122c-0.438,1.414-0.921,2.774-1.448,4.072c-4.698,11.504-41.013,13.19-76.762,9.191
										c-27.728-3.101-55.118-9.629-67.144-17.661c-11.294-7.538,12.758-77.1,12.758-77.1l139.824,29.346
										C697.483,431.912,692.731,450.864,690.824,478.189z"/>
								</g>
							</g>
						</g>
						<g>
							<g>
								<g>
									<path style="fill:#5DABFF;" d="M527.566,651.173l11.092,200.861l39.934,1.208c0,0,14.622-148.29,9.509-180.557
										l21.368-175.66l0.524-4.506L558.713,468.9l-3.199-1.478l-13.061-6.012c-0.111,1.053-0.221,2.102-0.331,3.155
										c-0.419,3.933-0.833,7.849-1.23,11.749c-0.127,1.18-0.243,2.35-0.369,3.519c-6.437,62.565-11.18,120.861-12.835,167.75
										C527.643,648.79,527.604,649.987,527.566,651.173C527.566,651.173,527.61,643.049,527.566,651.173z"/>
								</g>
							</g>
						</g>
						<g>
							<g>
								<g>
									<g>
										<g>
											<g>
												<g>
													<g>
														<path style="fill:#007DED;" d="M527.566,651.173c2.741,0.265,5.526,0.37,8.218,0.37c9.901,0,18.56-1.412,19.162-1.506
															c0.971-0.166,1.633-1.087,1.467-2.063c-0.154-0.976-1.076-1.643-2.057-1.473c-0.182,0.028-14.181,2.306-26.668,1.081
															C527.643,648.79,527.604,649.987,527.566,651.173z"/>
													</g>
												</g>
											</g>
										</g>
									</g>
								</g>
							</g>
						</g>
						<g>
							<g>
								<g>
									<g>
										<path style="fill:#007DED;" d="M602.722,499.501l-23.933,182.654c0.734,4.021,8.378,50.132-3.855,155.345
											c-0.127,1.054-0.248,2.118-0.375,3.188l-3.348-0.028c0.127-1.07,0.248-2.129,0.375-3.188
											c12.752-109.339,3.982-154.484,3.889-154.937c-0.033-0.182-0.044-0.37-0.017-0.552l23.96-182.918
											c0.121-0.91,0.96-1.555,1.87-1.434C602.198,497.753,602.838,498.591,602.722,499.501z"/>
									</g>
								</g>
							</g>
						</g>
						<g>
							<g>
								<g>
									<g>
										<g>
											<g>
												<path style="fill:#007DED;" d="M579.931,839.138c-0.017,0.883-0.701,1.594-1.533,1.583l-3.839-0.033l-3.348-0.028
													l-31.903-0.259c-0.044,0-0.088-0.006-0.127-0.011c-0.772-0.072-1.368-0.766-1.351-1.599
													c0.017-0.888,0.706-1.594,1.533-1.589l32.223,0.271l3.348,0.027l3.519,0.028
													C579.274,837.539,579.948,838.25,579.931,839.138z"/>
											</g>
										</g>
									</g>
								</g>
							</g>
						</g>
						<g>
							<g>
								<g>
									<g>
										<g>
											<path style="fill:#007DED;" d="M573.129,438.997c-0.161,0.86-3.439,17.861-14.416,29.903
												c-2.219,2.435-4.748,4.665-7.633,6.518c-2.252,1.448-4.609,2.596-7.077,3.433c-1.137,0.399-2.297,0.727-3.478,0.982
												c0.122-1.17,0.238-2.341,0.366-3.517c0.56-0.145,1.115-0.305,1.664-0.488c2.352-0.771,4.598-1.836,6.728-3.206
												c2.308-1.486,4.382-3.256,6.229-5.197c10.955-11.448,14.305-28.832,14.344-29.037c0.166-0.899,1.032-1.498,1.941-1.331
												C572.702,437.228,573.295,438.093,573.129,438.997z"/>
										</g>
									</g>
								</g>
							</g>
						</g>
						<g>
							<g>
								<g>
									<g>
										<g>
											<path style="fill:#007DED;" d="M600.547,490.113c-0.036,0.733,0.551,1.361,1.31,1.404c0.005,0,0.005,0,0.011,0.001
												c0.765,0.038,1.413-0.531,1.449-1.27c0.245-5.015,0.54-10.151,0.863-15.281c0.057-0.903,0.113-1.806,0.175-2.708
												c1.091-16.764,2.475-33.221,3.52-44.84c0.086-0.939,0.166-1.851,0.248-2.726c0.233-2.55,2.646-27.92,2.827-29.836
												c-0.92-0.143-1.839-0.291-2.747-0.444c-0.18,1.915-2.595,27.307-2.829,29.883c-0.083,0.875-0.162,1.787-0.248,2.726
												c-1.034,11.518-2.41,27.831-3.501,44.493c-0.063,0.918-0.121,1.843-0.184,2.762
												C601.107,479.593,600.801,484.921,600.547,490.113z"/>
										</g>
									</g>
								</g>
							</g>
						</g>
						<g>
							<g>
								<g>
									<g>
										<g>
											<path style="fill:#007DED;" d="M596.595,472.422c0.433,0.207,2.376,1.11,4.845,1.855
												c0.863,0.263,1.788,0.503,2.739,0.691c0.868,0.167,1.75,0.292,2.625,0.341c1.678,0.095,3.299-0.082,4.652-0.729
												c1.685-0.806,2.778-2.272,3.156-4.235c1.008-5.171,3.125-26.525,4.55-41.629c0.091-0.928,0.176-1.835,0.259-2.715
												c0.225-2.416,2.63-27.723,2.802-29.59c-0.916-0.111-1.838-0.222-2.759-0.343c-0.172,1.878-2.578,27.211-2.811,29.659
												c-0.083,0.875-0.167,1.781-0.253,2.715c-1.429,15.066-3.538,36.389-4.515,41.401c-0.221,1.157-0.752,1.898-1.671,2.34
												c-1.467,0.7-3.67,0.554-5.86,0.077c-0.933-0.203-1.863-0.464-2.73-0.744c-1.588-0.513-2.971-1.095-3.805-1.491
												c-0.687-0.328-1.519-0.059-1.856,0.603C595.626,471.289,595.908,472.093,596.595,472.422z"/>
										</g>
									</g>
								</g>
							</g>
						</g>
					</g>
					<g>
						<g>
							<g>
								<g>
									<path style="fill:#5DABFF;" d="M612.045,475.293v373.244l0.403,5.913h41.169c2.185-13.309,17.667-67.165,19.813-112.052
										c2.317-48.318,1.672-110.922,1.672-110.922c4.357-33.271,10.998-102.455,14.87-144.115
										c0.099-1.114,0.204-2.217,0.304-3.293c0.011-0.044,0.016-0.088,0.016-0.127c0-0.005,0-0.022,0.005-0.033
										c0.094-1.087,0.193-2.14,0.292-3.172c1.528-16.536,2.493-27.325,2.493-27.325c-6.382-2.653-17.755-0.987-30,2.366
										c-1.081,0.298-2.168,0.607-3.254,0.921c-2.046,0.601-4.104,1.247-6.156,1.909c-1.087,0.358-2.162,0.717-3.238,1.081
										C630.556,466.457,612.045,475.293,612.045,475.293z"/>
								</g>
							</g>
						</g>
						<g>
							<g>
								<g>
									<g>
										<g>
											<g>
												<g>
													<g>
														<path style="fill:#007DED;" d="M612.045,642.221v3.607c2.636,0.243,5.312,0.342,7.904,0.342
															c9.895,0,18.555-1.412,19.162-1.511c0.971-0.166,1.632-1.087,1.467-2.063c-0.16-0.976-1.081-1.638-2.057-1.473
															C638.338,641.157,624.483,643.407,612.045,642.221z"/>
													</g>
												</g>
											</g>
										</g>
									</g>
								</g>
							</g>
						</g>
						<g>
							<g>
								<g>
									<g>
										<path style="fill:#007DED;" d="M669.512,631.929c0.099,3.856,2.344,94.424-2.477,127.143
											c-3.536,23.982-10.414,61.208-13.999,80.199c-0.21,1.131-0.414,2.195-0.596,3.188l-1.517-0.011l-1.864-0.016
											c0.188-0.987,0.386-2.052,0.601-3.183c3.541-18.776,10.518-56.481,14.082-80.662
											c4.859-32.979,2.466-125.759,2.438-126.691c0-0.082,0.005-0.16,0.011-0.237c3.651-31.037,11.12-138.175,11.191-139.256
											c0.066-0.916,0.861-1.605,1.776-1.544c0.916,0.066,1.611,0.86,1.544,1.776C680.632,493.71,673.18,600.66,669.512,631.929z
											"/>
									</g>
								</g>
							</g>
						</g>
						<g>
							<g>
								<g>
									<g>
										<g>
											<g>
												<path style="fill:#007DED;" d="M656.611,840.898c-0.022,0.882-0.745,1.594-1.627,1.583l-2.543-0.022l-1.517-0.011
													l-1.864-0.016l-1.682-0.011l-33.768-0.259c-0.05,0-0.094-0.006-0.132-0.011c-0.822-0.072-1.451-0.767-1.434-1.6
													c0.017-0.888,0.75-1.594,1.627-1.589l34.104,0.27l1.886,0.017l1.66,0.011l1.715,0.011l2.008,0.017
													C655.916,839.298,656.627,840.01,656.611,840.898z"/>
											</g>
										</g>
									</g>
								</g>
							</g>
						</g>
						<g>
							<g>
								<g>
									<g>
										<g>
											<g>
												<g>
													<path style="fill:#3E4870;" d="M606.028,913.338c0,0.249,0.006,0.493,0.012,0.73c0.024,1.11,0.072,2.108,0.119,2.964
														c0.113,1.882,0.25,3.041,0.25,3.041h62.483c0,0,0.309-2.417,0.071-6.004c-0.41-6.384-2.53-16.469-11.159-23.132
														c-11.812-9.134-7.251-7.227-9.675-11.391c-0.273-0.463-2.399-7.536-2.625-8.023c-2.031-4.324-3.902-6.367-15.097-6.367
														c-14.847,0-16.154,7.204-17.74,10.999c-0.653,1.574-1.55,4.882-2.471,8.82c-0.374,1.58-0.748,3.266-1.117,4.983
														c-0.914,4.306-1.77,8.801-2.351,12.389C606.111,906.188,605.981,910.143,606.028,913.338z"/>
												</g>
											</g>
										</g>
									</g>
								</g>
								<g>
									<g>
										<g>
											<g>
												<g>
													<g>
														<path style="fill:#402C49;" d="M606.028,913.338c0,0.249,0.006,0.493,0.012,0.73c0.024,1.11,0.072,2.108,0.119,2.964
															c3.047-2.138,5.22-4.959,6.491-8.416c3.866-10.53-2.079-23.167-2.328-23.702l-0.125,0.059
															c-0.374,1.58-0.748,3.266-1.117,4.983c1.407,4.3,3.029,11.527,0.778,17.645
															C609.039,909.828,607.756,911.746,606.028,913.338z"/>
													</g>
												</g>
											</g>
										</g>
									</g>
								</g>
								<g>
									<g>
										<g>
											<g>
												<g>
													<path style="fill:#402C49;" d="M606.04,914.068c0.083,3.557,0.369,6.004,0.369,6.004h62.483
														c0,0,0.309-2.417,0.071-6.004H606.04z"/>
												</g>
											</g>
										</g>
									</g>
								</g>
							</g>
							<g>
								<g>
									<g>
										<g>
											<g>
												<path style="fill:#402C49;" d="M628.346,884.633c0.148,0,0.298-0.019,0.448-0.058
													c7.947-2.058,14.421-0.316,14.486-0.298c0.95,0.263,1.93-0.294,2.192-1.242c0.262-0.948-0.294-1.93-1.242-2.192
													c-0.3-0.083-7.469-2.012-16.329,0.283c-0.953,0.246-1.525,1.219-1.278,2.171
													C626.831,884.1,627.554,884.633,628.346,884.633z"/>
											</g>
										</g>
									</g>
								</g>
							</g>
							<g>
								<g>
									<g>
										<g>
											<g>
												<path style="fill:#402C49;" d="M627.372,877.9c0.148,0,0.298-0.019,0.448-0.057c7.947-2.058,14.421-0.317,14.486-0.298
													c0.949,0.263,1.93-0.294,2.192-1.242c0.262-0.948-0.294-1.93-1.242-2.192c-0.3-0.083-7.468-2.012-16.329,0.283
													c-0.953,0.246-1.525,1.219-1.278,2.171C625.856,877.367,626.579,877.9,627.372,877.9z"/>
											</g>
										</g>
									</g>
								</g>
							</g>
							<g>
								<g>
									<g>
										<g>
											<g>
												<path style="fill:#402C49;" d="M631.018,890.278c0.147,0,0.298-0.018,0.447-0.058
													c7.896-2.045,14.424-0.315,14.489-0.297c0.948,0.26,1.928-0.299,2.188-1.247c0.26-0.947-0.295-1.926-1.241-2.188
													c-0.301-0.083-7.469-2.011-16.329,0.283c-0.953,0.247-1.525,1.219-1.278,2.172
													C629.502,889.745,630.225,890.278,631.018,890.278z"/>
											</g>
										</g>
									</g>
								</g>
							</g>
							<g>
								<g>
									<g>
										<g>
											<g>
												<path style="fill:#402C49;" d="M634.158,896.696c0.148,0,0.298-0.018,0.448-0.057
													c7.895-2.044,14.424-0.315,14.489-0.297c0.948,0.261,1.928-0.299,2.188-1.246c0.26-0.948-0.294-1.927-1.241-2.189
													c-0.301-0.083-7.468-2.011-16.329,0.283c-0.953,0.246-1.525,1.219-1.278,2.172
													C632.642,896.163,633.366,896.696,634.158,896.696z"/>
											</g>
										</g>
									</g>
								</g>
							</g>
						</g>
						<g>
							<g>
								<g>
									<g>
										<g>
											<path style="fill:#007DED;" d="M690.295,483.907c-0.005,0.01-0.005,0.027-0.005,0.037c0,0.037-0.005,0.08-0.016,0.122
												c-0.101,1.079-0.202,2.179-0.303,3.296c-4.72,0.797-9.334,0.388-13.815-1.239c-8.521-3.088-15.208-10.057-20.061-16.999
												c-2.302-3.29-4.189-6.575-5.661-9.435c-2.498-4.848-3.817-8.484-3.965-8.888c-0.308-0.872,0.149-1.818,1.01-2.126
												c0.877-0.314,1.818,0.144,2.126,1.01c0.037,0.096,1.409,3.886,4.067,8.925c1.403,2.668,3.163,5.688,5.278,8.696
												c4.539,6.48,10.684,12.922,18.35,15.692C681.477,484.513,685.825,484.816,690.295,483.907z"/>
										</g>
									</g>
								</g>
							</g>
						</g>
					</g>
				</g>
				<g>
					<g>
						<g>
							<path style="fill:#F2C9AD;" d="M565.489,200.053l-0.831,2.385l-0.939,2.613c-0.623,1.758-1.27,3.526-1.933,5.288
								c-1.319,3.527-2.667,7.052-4.095,10.522c-1.396,3.481-2.846,6.922-4.364,10.29c-1.502,3.374-3.039,6.69-4.654,9.898
								c-1.626,3.196-3.274,6.314-4.98,9.259c-1.707,2.943-3.481,5.716-5.272,8.183c-1.756,2.471-3.553,4.681-5.153,6.278
								c-0.795,0.802-1.535,1.458-2.136,1.931c-0.302,0.242-0.566,0.432-0.778,0.577l-0.082,0.062
								c-0.034,0.026,0.014-0.007,0.018-0.005c0.029-0.013,0.061-0.021,0.094-0.024c0.078,0.008,0.113-0.032,0.177-0.025
								c0.22-0.019,0.311,0.058,0.106,0.152c-0.198,0.094-0.681,0.189-1.396,0.198c-1.43,0.04-3.727-0.334-6.319-1.065
								c-2.592-0.719-5.487-1.838-8.442-3.186c-2.955-1.365-6.026-2.921-9.093-4.664c-6.135-3.502-12.354-7.568-18.452-11.957
								c-3.067-2.177-6.087-4.465-9.096-6.774c-1.503-1.155-2.992-2.331-4.464-3.508l-2.194-1.754l-2.012-1.635l-0.821-0.667
								c-7.784-6.326-19.223-5.145-25.55,2.639c-5.681,6.99-5.302,16.928,0.468,23.463l2.326,2.64l2.211,2.451
								c1.483,1.609,2.984,3.179,4.498,4.741c3.026,3.123,6.161,6.137,9.361,9.123c6.451,5.917,13.238,11.624,20.756,16.923
								c3.759,2.652,7.683,5.24,11.93,7.627c4.249,2.393,8.758,4.664,13.836,6.618c5.061,1.955,10.703,3.6,17.375,4.299
								c3.329,0.337,6.928,0.413,10.759,0.005c3.822-0.404,7.886-1.319,11.859-2.889c0.991-0.405,1.983-0.796,2.946-1.288
								l1.446-0.726c0.227-0.119,0.507-0.258,0.689-0.364l0.571-0.329c1.539-0.88,2.978-1.801,4.325-2.743
								c2.703-1.886,5.075-3.854,7.232-5.838c4.311-3.977,7.755-8.013,10.868-12.034c3.063-4.044,5.734-8.081,8.185-12.112
								c2.457-4.029,4.675-8.057,6.717-12.105c2.041-4.044,3.957-8.081,5.731-12.137c1.765-4.061,3.414-8.127,4.986-12.204
								c1.534-4.092,3.002-8.186,4.358-12.325c0.674-2.072,1.331-4.15,1.969-6.251l0.921-3.187l0.948-3.44
								c3.406-12.361-3.853-25.144-16.214-28.55c-11.837-3.262-24.061,3.257-28.067,14.671L565.489,200.053z"/>
						</g>
					</g>
					<g>
						<path style="fill:#E8916A;" d="M561.792,204.443c0,0-5.148,12.003-9.377,20.696c-4.229,8.693-10.369,23.268-10.369,23.268
							l26.916,50.097c0,0,17.467-18.721,17.834-41.421C587.164,234.383,591.025,201.714,561.792,204.443z"/>
					</g>
					<g>
						<g>
							<g>
								<path style="fill:#EF9F6A;" d="M539.168,285.334c0.079,0,0.16-0.008,0.242-0.026c0.605-0.132,0.989-0.732,0.856-1.338
									c-2.289-10.447-8.181-16.447-8.431-16.697c-0.437-0.438-1.148-0.439-1.587-0.002c-0.439,0.438-0.441,1.149-0.005,1.588
									c0.057,0.057,5.687,5.818,7.829,15.593C538.187,284.977,538.652,285.334,539.168,285.334z"/>
							</g>
						</g>
						<g>
							<g>
								<path style="fill:#EF9F6A;" d="M540.922,271.67c0.504,0,0.961-0.34,1.09-0.85c0.151-0.602-0.215-1.212-0.817-1.363
									l-9.882-2.481c-0.605-0.148-1.213,0.214-1.363,0.817c-0.151,0.602,0.214,1.212,0.816,1.363l9.882,2.481
									C540.74,271.659,540.832,271.67,540.922,271.67z"/>
							</g>
						</g>
					</g>
					<g>
						<g>
							<g>
								<g>
									<g>
										<g>
											<g>
												<g>
													<g>
														<g>
															<path style="fill:#EF9F6A;" d="M477.925,252.593c-0.492-0.031-0.896-0.424-0.927-0.929
																c-0.743-11.828,7.583-20.09,7.938-20.436c0.392-0.383,1.021-0.375,1.404,0.018c0.382,0.392,0.374,1.02-0.017,1.403
																l0,0c-0.08,0.078-8.027,7.992-7.342,18.89c0.034,0.547-0.382,1.019-0.929,1.054
																C478.008,252.595,477.966,252.595,477.925,252.593z"/>
														</g>
													</g>
												</g>
											</g>
										</g>
									</g>
								</g>
							</g>
						</g>
						<g>
							<g>
								<g>
									<g>
										<g>
											<g>
												<g>
													<g>
														<g>
															<path style="fill:#EF9F6A;" d="M502.932,253.903c-0.392-0.025-0.749-0.282-0.88-0.678
																c-3.744-11.252-13.001-12.142-13.094-12.15c-0.546-0.045-0.953-0.524-0.908-1.071c0.044-0.54,0.513-0.943,1.051-0.91
																c0.007,0.001,0.013,0.001,0.02,0.002c0.434,0.036,10.661,1.018,14.815,13.501c0.173,0.521-0.109,1.083-0.629,1.256
																C503.183,253.896,503.056,253.911,502.932,253.903z"/>
														</g>
													</g>
												</g>
											</g>
										</g>
									</g>
								</g>
							</g>
						</g>
						<g>
							<g>
								<g>
									<g>
										<path style="fill:#F4D071;" d="M445.093,329.117l-57.34-97.889c-1.874-3.2-0.8-7.313,2.4-9.188l67.251-39.393
											c3.2-1.874,7.313-0.8,9.188,2.4l57.339,97.889c1.874,3.2,0.8,7.313-2.4,9.187l-67.251,39.392
											C451.081,333.392,446.968,332.317,445.093,329.117z"/>
									</g>
								</g>
							</g>
							<g>
								<g>
									<g>
										<path style="fill:#FBEED1;" d="M397.122,227.26l61.428-35.982c0.63-0.369,1.441-0.158,1.81,0.473l48.113,82.138
											c0.369,0.63,0.158,1.441-0.473,1.81l-61.427,35.982c-0.63,0.369-1.441,0.158-1.81-0.473l-48.113-82.138
											C396.28,228.439,396.491,227.629,397.122,227.26z"/>
									</g>
								</g>
							</g>
							<g>
								<g>
									<path style="fill:#F4D071;" d="M449.494,296.329c-0.38,0-0.75-0.196-0.954-0.548c-0.306-0.527-0.128-1.202,0.399-1.508
										l43.136-25.097c0.526-0.308,1.202-0.128,1.508,0.399c0.307,0.527,0.128,1.202-0.398,1.508l-43.136,25.096
										C449.873,296.282,449.683,296.329,449.494,296.329z"/>
								</g>
							</g>
						</g>
					</g>
				</g>
				<g>
					<g>
						<g>
							<g>
								<g>
									<g>
										<g>
											<g>
												<g>
													<path style="fill:#E8916A;" d="M688.119,183.798c-1.914-0.778-3.933-1.34-6.056-1.677
														c-1.627-0.26-3.188-0.557-4.683-0.883h-0.005c-6.349-1.384-11.528-3.315-15.549-5.218
														c-0.607-0.287-1.18-0.568-1.737-0.855c-5.913-3.012-9.255-5.725-9.255-5.725l-39.2,1.34
														c-3.519,5.13-9.636,7.016-14.413,9.294c-0.524,0.248-1.059,0.491-1.6,0.728c-0.998,0.43-2.013,0.827-3.028,1.191
														c-3.751,1.368-7.59,2.361-11.252,3.414c-9.757,2.808-18.279,6.067-20.64,17.915
														c-2.195,10.982,6.227,33.591,5.345,79.415c-0.066,3.364-0.182,6.845-0.353,10.463
														c-0.16,3.381-0.375,6.878-0.645,10.502c-0.05,0.695-0.105,1.39-0.16,2.096c-0.21,2.703-0.458,5.483-0.745,8.318
														c-0.309,3.127-0.662,6.338-1.059,9.625c-0.408,3.376-0.866,6.828-1.373,10.375
														c-2.725,19.051-8.992,29.163-12.07,54.484c-1.517,12.41-5.297,28.618-3.477,30.047l153.707,30.041
														c0.226-1.218,0.56-1.847,0.901-4.672c4.81-13.133,6.567-58.116,10.671-82.59c1.009-5.979,1.491-11.283,1.839-14.709
														c0.353-3.469,0.504-7.373,0.735-10.848c1.103-16.724,2.647-33.729,1.837-51.362c-0.044-0.954-0.088-1.914-0.138-2.879
														c-0.711-14.501,4.4-34.53,5.472-51.293C721.186,230.338,729.156,198.027,688.119,183.798z"/>
												</g>
											</g>
										</g>
									</g>
								</g>
							</g>
						</g>
					</g>
					<g>
						<g>
							<path style="fill:#E27144;" d="M566.31,292.724c-0.007,0-0.013,0-0.02,0c-0.609-0.011-1.094-0.513-1.084-1.123l1.104-62.177
								c0.011-0.603,0.503-1.084,1.103-1.084c0.007,0,0.013,0,0.02,0c0.609,0.011,1.095,0.513,1.084,1.123l-1.104,62.177
								C567.402,292.243,566.91,292.724,566.31,292.724z"/>
						</g>
						<g>
							<path style="fill:#E27144;" d="M566.833,249.511c-0.436,0-0.849-0.261-1.023-0.689l-4.122-10.176
								c-0.229-0.564,0.044-1.208,0.608-1.436c0.565-0.229,1.209,0.044,1.437,0.608l4.122,10.176
								c0.229,0.564-0.044,1.208-0.608,1.436C567.111,249.484,566.971,249.511,566.833,249.511z"/>
						</g>
					</g>
					<g>
						<path style="fill:#E27144;" d="M695.38,446.535c-0.126,0-0.254-0.022-0.378-0.067c-0.573-0.209-0.867-0.843-0.658-1.415
							c15.093-41.333,10.073-91.007,11.006-121.374c1.012-32.932-1.586-56.378-1.613-56.612c-0.068-0.605,0.367-1.152,0.972-1.22
							c0.6-0.071,1.152,0.367,1.22,0.972c0.026,0.234,2.641,23.807,1.627,56.887c-0.936,30.54,4.059,80.481-11.139,122.103
							C696.253,446.257,695.83,446.535,695.38,446.535z"/>
					</g>
					<g>
						<path style="fill:#E27144;" d="M596.745,395.412c-8.697,0-18.101-0.93-28.199-3.121c-0.596-0.129-0.974-0.716-0.844-1.312
							c0.129-0.595,0.717-0.974,1.312-0.844c38.123,8.271,66.202-1.737,83.046-11.589c18.279-10.692,27.662-23.518,27.754-23.647
							c0.357-0.494,1.046-0.605,1.54-0.249c0.494,0.357,0.606,1.046,0.249,1.54c-0.387,0.537-9.692,13.277-28.34,24.208
							C640.534,387.859,621.522,395.412,596.745,395.412z"/>
					</g>
					<g>
						<path style="fill:#E27144;" d="M603.25,376.444c-2.424,0-4.965-0.216-7.623-0.691c-0.6-0.107-0.999-0.681-0.891-1.281
							c0.107-0.599,0.677-1.001,1.28-0.891c29.658,5.309,44.601-23.392,44.749-23.683c0.275-0.543,0.939-0.761,1.483-0.484
							c0.543,0.275,0.76,0.939,0.484,1.483c-0.158,0.311-3.962,7.712-11.66,14.529C625.088,370.724,615.736,376.444,603.25,376.444z
							"/>
					</g>
					<g>
						<path style="fill:#E27144;" d="M619.227,205.545c-6.555,0-12.751-2.206-18.471-6.586c-0.484-0.371-0.576-1.063-0.205-1.547
							c0.371-0.484,1.063-0.576,1.547-0.205c6.425,4.92,13.484,6.892,20.967,5.866c18.829-2.587,34.562-23.269,34.718-23.478
							c0.366-0.486,1.057-0.585,1.545-0.22c0.487,0.366,0.586,1.057,0.22,1.544c-0.661,0.882-16.429,21.621-36.175,24.338
							C621.977,205.449,620.594,205.545,619.227,205.545z"/>
					</g>
					<g>
						<g>
							<g>
								<path style="fill:#3E4870;" d="M597.227,76.266c0,0-5.564,5.708-5.47,12.414c0,0-3.587,7.06-2.663,13.158
									c0.924,6.097,3.998,14.004,3.998,14.004s5.13-28.837,11.735-30.3c6.605-1.463,14.763-6.351,14.763-6.351
									S616.115,71.347,597.227,76.266z"/>
							</g>
						</g>
						<g>
							<g>
								<path style="fill:#3E4870;" d="M666.885,100.646c0,0,2.273,7.083-0.941,10.565c-3.215,3.481,0.271,9.219-4.023,12.555
									c-4.294,3.336-11.188,1.268-11.188,1.268s-1.804-36.098-5.039-39.492C645.694,85.542,657.665,85.635,666.885,100.646z"/>
							</g>
						</g>
						<g>
							<g>
								<g>
									<g>
										<g>
											<g>
												<g>
													<g>
														<path style="fill:#F2C9AD;" d="M611.522,164.987v10.392c1.216,0.983,2.445,1.837,3.678,2.577
															c18.044,10.837,37.51-2.577,37.51-2.577v-36.03l-36.277,22.581L611.522,164.987z"/>
													</g>
												</g>
											</g>
										</g>
									</g>
								</g>
							</g>
							<g>
								<g>
									<g>
										<g>
											<g>
												<g>
													<g>
														<path style="fill:#EF9F6A;" d="M611.522,164.689v10.69c1.216,0.983,2.445,1.837,3.678,2.577
															c15.364-6.082,26.547-22.202,26.547-22.202l-25.314,6.176L611.522,164.689z"/>
													</g>
												</g>
											</g>
										</g>
									</g>
								</g>
							</g>
						</g>
						<g>
							<g>
								<g>
									<g>
										<g>
											<g>
												<g>
													<path style="fill:#EF9F6A;" d="M598.536,118.935c0,0-5.902-6.973-9.238,0c-3.336,6.973-0.77,21.086,8.211,18.777
														L598.536,118.935z"/>
												</g>
											</g>
										</g>
									</g>
								</g>
							</g>
						</g>
						<g>
							<g>
								<g>
									<g>
										<g>
											<g>
												<g>
													<path style="fill:#F2C9AD;" d="M592.241,143.387c0,0-0.031,21.484,22.317,21.436
														c22.209-0.042,37.344-17.482,38.13-18.29c0.014-0.014,0.024-0.02,0.024-0.02l0.243-4.515l1.262-23.437l0.676-12.526
														c0,0,2.837-22.556-18.599-26.669c-15.662-3.007-30.349-0.406-37.76,7.765c-0.239,0.264-0.471,0.534-0.69,0.812
														c-2.334,2.872-3.818,6.374-4.217,10.505l-0.694,22.5l-0.17,5.514L592.241,143.387z"/>
												</g>
											</g>
										</g>
									</g>
								</g>
							</g>
						</g>
						<g>
							<g>
								<g>
									<g>
										<g>
											<g>
												<g>
													<path style="fill:#EF9F6A;" d="M622.081,123.71c0,1.564,3.222,2.832,7.196,2.832c3.974,0,7.196-1.268,7.196-2.832
														c0-1.564-3.222-2.832-7.196-2.832C625.303,120.878,622.081,122.146,622.081,123.71z"/>
												</g>
											</g>
										</g>
									</g>
								</g>
							</g>
						</g>
						<g>
							<g>
								<g>
									<g>
										<g>
											<g>
												<g>
													<path style="fill:#EF9F6A;" d="M592.764,126.46c0.555,0.056,1.137,0.083,1.734,0.083c3.971,0,7.193-1.269,7.193-2.833
														c0-1.564-3.222-2.833-7.193-2.833c-0.538,0-1.061,0.024-1.564,0.069L592.764,126.46z"/>
												</g>
											</g>
										</g>
									</g>
								</g>
							</g>
						</g>
						<g>
							<g>
								<g>
									<path style="fill:#3E4870;" d="M645.089,116.948c0,0-6.633,13.587-13.662,11.125c-7.029-2.462-15.47-2.723-22.081,0
										c0,0-10.434-6.914-17.121-2.736c-4.484,2.802-3.352,32.616,11.766,37.589c15.118,4.973,35.982,0.531,41.613-13.682
										c5.631-14.212,5.87-26.515,5.87-26.515L645.089,116.948z"/>
								</g>
							</g>
						</g>
						<g>
							<g>
								<g>
									<g>
										<g>
											<path style="fill:#007DED;" d="M608.043,136.654c8.179,0.371,15.195-6.34,15.288-6.431
												c0.364-0.355,0.371-0.938,0.017-1.303c-0.355-0.364-0.938-0.372-1.303-0.018c-0.458,0.445-11.333,10.814-21.12,3.139
												c-0.401-0.314-0.98-0.244-1.294,0.156c-0.314,0.4-0.244,0.98,0.157,1.294
												C602.528,135.641,605.349,136.532,608.043,136.654z"/>
										</g>
									</g>
								</g>
							</g>
						</g>
						<g>
							<g>
								<g>
									<g>
										<g>
											<g>
												<g>
													<path style="fill:#3E4870;" d="M634.102,104.039L634.102,104.039c-1.134,2.512-4.069,3.655-6.601,2.566
														c-1.479-0.636-3.222-1.26-5.06-1.661c-2.607-0.567-4.217-3.187-3.511-5.76l0,0
														C618.929,99.184,629.333,98.23,634.102,104.039z"/>
												</g>
											</g>
										</g>
									</g>
								</g>
							</g>
						</g>
						<g>
							<g>
								<g>
									<g>
										<g>
											<g>
												<g>
													<path style="fill:#3E4870;" d="M593.689,104.039L593.689,104.039c1.134,2.512,4.07,3.655,6.601,2.566
														c1.478-0.636,3.222-1.26,5.061-1.661c2.607-0.567,4.216-3.187,3.511-5.76l0,0
														C608.862,99.184,598.458,98.23,593.689,104.039z"/>
												</g>
											</g>
										</g>
									</g>
								</g>
							</g>
						</g>
						<g>
							<g>
								<g>
									<g>
										<g>
											<g>
												<g>
													<path style="fill:#3E4870;" d="M597.845,87.941c3.506-1.241,6.038-0.086,11.5,2.313
														c7.897,3.468,16.726,0.347,24.529-3.642c7.803-3.988,12.485,1.561,9.825,5.202c-2.657,3.641-2.369,6.589,0.58,11.233
														c2.948,4.64-5.577,6.801-0.867,10.442c1.984,1.534,1.865,3.825,1.064,5.962c-0.874,2.33,1.172,4.714,3.618,4.258l0,0
														c2.542-0.645,6.125-5.15,6.125-5.15l0.676-12.526c0,0,2.837-22.556-18.599-26.669
														c-15.662-3.007-30.349-0.406-37.76,7.765C598.297,87.393,598.064,87.663,597.845,87.941z"/>
												</g>
											</g>
										</g>
									</g>
								</g>
							</g>
						</g>
						<g>
							<g>
								<g>
									<g>
										<g>
											<g>
												<g>
													<path style="fill:#3E4870;" d="M622.482,115.101c0,2.148,0.975,3.89,2.177,3.89c1.202,0,2.177-1.742,2.177-3.89
														c0-2.148-0.974-3.89-2.177-3.89C623.457,111.21,622.482,112.952,622.482,115.101z"/>
												</g>
											</g>
										</g>
									</g>
								</g>
							</g>
						</g>
						<g>
							<g>
								<g>
									<g>
										<g>
											<g>
												<g>
													<path style="fill:#3E4870;" d="M600.894,115.101c0,2.148,0.975,3.89,2.176,3.89c1.202,0,2.177-1.742,2.177-3.89
														c0-2.148-0.975-3.89-2.177-3.89C601.868,111.21,600.894,112.952,600.894,115.101z"/>
												</g>
											</g>
										</g>
									</g>
								</g>
							</g>
						</g>
						<g>
							<g>
								<g>
									<g>
										<g>
											<g>
												<g>
													<path style="fill:#3E4870;" d="M645.694,137.816c0.101,0.238,2.929,6.798,6.995,8.718
														c0.013-0.013,0.022-0.022,0.022-0.022l0.242-4.515C652.953,141.997,649.426,141.394,645.694,137.816z"/>
												</g>
											</g>
										</g>
									</g>
								</g>
							</g>
						</g>
						<g>
							<g>
								<g>
									<g>
										<g>
											<g>
												<g>
													<path style="fill:#F2C9AD;" d="M649.628,122.895c0,0,8.59-11.538,14.883-2.471c5.186,7.472-4.619,26.944-14.883,20.272
														V122.895z"/>
												</g>
											</g>
										</g>
									</g>
								</g>
							</g>
						</g>
						<g>
							<g>
								<g>
									<g>
										<g>
											<g>
												<g>
													<path style="fill:#3E4870;" d="M650.803,137.221c0.445,0,0.828-0.335,0.878-0.788
														c0.955-8.733,8.27-11.777,8.581-11.902c0.452-0.182,0.672-0.697,0.491-1.149c-0.182-0.453-0.694-0.674-1.147-0.492
														c-0.351,0.14-8.609,3.539-9.682,13.352c-0.053,0.485,0.297,0.922,0.782,0.975
														C650.738,137.219,650.771,137.221,650.803,137.221z"/>
												</g>
											</g>
										</g>
									</g>
								</g>
							</g>
						</g>
						<g>
							<g>
								<g>
									<g>
										<g>
											<g>
												<g>
													<path style="fill:#3E4870;" d="M659.05,131.862c0.258,0,0.513-0.111,0.687-0.327c0.307-0.379,0.25-0.935-0.128-1.242
														c-0.353-0.287-3.523-2.783-6.176-2.104c-0.473,0.121-0.759,0.602-0.638,1.076c0.121,0.473,0.604,0.758,1.076,0.637
														c1.526-0.391,3.855,1.141,4.623,1.764C658.658,131.798,658.855,131.862,659.05,131.862z"/>
												</g>
											</g>
										</g>
									</g>
								</g>
							</g>
						</g>
						<g>
							<g>
								<g>
									<g>
										<g>
											<g>
												<g>
													<path style="fill:#3E4870;" d="M611.989,125.916c0.488,0,0.884-0.395,0.884-0.884c0-0.488-0.396-0.884-0.884-0.884
														c-3.251,0-4.771-1.718-5.276-2.46c3.525-7.268,7.029-14.592,7.064-14.667c0.211-0.44,0.024-0.968-0.416-1.179
														c-0.441-0.211-0.968-0.024-1.179,0.416c-0.036,0.076-3.674,7.683-7.266,15.084c-0.116,0.239-0.118,0.519-0.006,0.76
														C604.983,122.258,606.751,125.916,611.989,125.916z"/>
												</g>
											</g>
										</g>
									</g>
								</g>
							</g>
						</g>
						<g>
							<g>
								<g>
									<g>
										<g>
											<g>
												<g>
													<path style="fill:#E8916A;" d="M667.807,103.946l-10.914-9.152l-1.41-1.181l-3.088-2.591
														c-21.858-11.084-49.945-10.828-49.945-10.828s6.458-20.216,32.846-19.925c9.559,0.104,17.19,2.7,22.855,6.652
														c0.979,0.68,1.897,1.401,2.754,2.16c5.107,4.491,8.139,10.205,9.059,15.918
														C671.933,97.243,667.807,103.946,667.807,103.946z"/>
												</g>
											</g>
										</g>
									</g>
								</g>
							</g>
						</g>
						<g>
							<g>
								<g>
									<g>
										<g>
											<g>
												<g>
													<g>
														<g>
															<g>
																<g>
																	<path style="fill:#E27144;" d="M656.893,94.793l-1.41-1.181c4.556-4.416,6.276-10.458,5.114-18.019
																		c-0.515-3.369-1.536-6.425-2.446-8.673c0.979,0.68,1.897,1.401,2.754,2.16c0.604,1.845,1.158,3.964,1.508,6.236
																		C663.647,83.329,661.743,89.978,656.893,94.793z"/>
																</g>
															</g>
														</g>
													</g>
												</g>
											</g>
										</g>
									</g>
								</g>
							</g>
						</g>
						<g>
							<g>
								<g>
									<g>
										<g>
											<g>
												<g>
													<g>
														<g>
															<g>
																<path style="fill:#E27144;" d="M623.065,64.973c0,0,9.8-2.918,22.488,3.797l-2.457,7.145
																	c0,0-12.181-4.83-21.014-5.096L623.065,64.973z"/>
															</g>
														</g>
													</g>
												</g>
											</g>
										</g>
									</g>
								</g>
							</g>
						</g>
						<g>
							<g>
								<g>
									<g>
										<g>
											<g>
												<g>
													<g>
														<g>
															<g>
																<path style="fill:#E27144;" d="M591.758,88.68c0,0-29.99-18.644-14.243-30.714
																	c15.746-12.069,53.338,3.771,74.881,33.055C652.395,91.021,601.69,70.152,591.758,88.68z"/>
															</g>
														</g>
													</g>
												</g>
											</g>
										</g>
									</g>
								</g>
							</g>
						</g>
					</g>
				</g>
				<g>
					<g>
						<g>
							<g>
								<g>
									<path style="fill:#3E4870;" d="M527.741,181.587c0.568,0.578,0.379,1.346,1.697,1.319c0.566-0.012-1.143,1.156,1.14,0.09
										c2.283-1.067-4.142,3.014,3.639-1.316c7.781-4.33,35.49-20.104,47.271-26.857c1.503-0.862,2.576-3.114,1.397-4.544
										c-1.178-1.43-2.419-2.361-4.503-1.189c-16.331,9.185-32.986,18.725-49.443,28.043c-0.395,0.55-1.27,1.757-1.54,2.137
										c-0.198,0.279-0.053,0.069-0.053,0.074C527.383,180.105,527.174,181.01,527.741,181.587z"/>
								</g>
							</g>
						</g>
						<g>
							<g>
								<path style="fill:#402C49;" d="M523.694,184.461c1.741-0.33,4.826-0.913,6.249-1.182c1.422-0.269,1.179-0.221,2.285-0.43
									c-0.623-2.176-1.366-4.347-3.296-5.707c-0.348,0.485-1.31,1.818-1.525,2.117c-0.214,0.298-0.053,0.079-0.055,0.081
									C526.107,181.091,524.866,182.757,523.694,184.461z"/>
							</g>
						</g>
					</g>
					<g>
						<g>
							<path style="fill:#F2C9AD;" d="M678.481,215.441c-0.169,0.55-0.54,1.944-0.783,2.771c-0.242,0.827-0.653,2.244-0.889,3.047
								c-0.633,2.155-1.261,4.239-1.905,6.29c-1.288,4.106-2.695,8.441-4.101,12.399c-2.807,7.905-6.015,15.936-9.526,23.278
								c-1.749,3.658-3.59,6.924-5.488,9.969c-1.898,3.045-3.402,4.925-5.57,7.492c-0.105,0.124-0.195,0.216-0.307,0.342
								c-0.112,0.126-0.163,0.147-0.305,0.283c-0.142,0.135-0.4,0.374-0.551,0.534c-0.151,0.16-0.343,0.305-0.5,0.427
								c-0.157,0.122-0.326,0.293-0.446,0.393c-0.12,0.1-0.257,0.158-0.33,0.22c-0.073,0.062-0.128,0.103-0.149,0.128
								c-0.02,0.025-0.108,0.083-0.038,0.051c0.07-0.032,0.17-0.1,0.322-0.171c0.152-0.07,0.445-0.193,0.664-0.262
								c0.219-0.069,0.494-0.191,0.733-0.261c0.239-0.071,0.532-0.121,0.768-0.184c0.236-0.063,0.563-0.129,0.762-0.15
								c0.199-0.021,0.252-0.017,0.407-0.035c0.156-0.019,0.195-0.031,0.372-0.05c0.177-0.019,0.509-0.02,0.701-0.015
								c0.193,0.006,0.451,0,0.605,0.007c0.154,0.007,0.483,0.073,0.552,0.071c0.318-0.011,1.035,0.244,1.154,0.279
								c0.119,0.035-0.495-0.064-1.164-0.479c-0.668-0.415-2.013-1.219-3.096-2.142c-1.084-0.923-2.455-2.025-3.797-3.336
								c-2.705-2.643-5.414-5.507-8.042-8.64c-2.627-3.133-5.335-6.581-7.92-10.044c-2.585-3.464-5.169-7.089-7.69-10.808
								c-5.043-7.44-9.927-15.114-14.674-22.87c-2.375-3.88-4.661-7.757-7.054-11.851c-0.896-1.533-2.461-4.259-3.369-5.841
								c-0.908-1.581-2.656-4.698-3.179-5.607c-0.523-0.91-0.323-0.598-0.414-0.722c-6.131-8.395-15.272-11.832-24.634-6.67
								c-8.635,4.761-10.507,13.443-7.983,22.468c0.268,0.959,1.053,2.51,1.435,3.529c0.383,1.019,1.028,2.473,1.404,3.371
								c0.999,2.388,1.947,4.524,2.956,6.783c2.018,4.519,4.048,8.891,6.2,13.342c2.153,4.452,4.313,8.777,6.647,13.196
								c2.334,4.419,4.576,8.658,7.167,13.088c5.185,8.865,10.469,17.374,16.697,25.851c3.114,4.239,6.714,8.657,10.527,12.802
								c1.916,2.083,4.052,4.234,6.531,6.398c2.479,2.164,4.978,4.243,8.252,6.339c3.273,2.096,7.414,4.259,11.658,5.678
								c2.089,0.698,5.518,1.468,8.035,1.741c0.612,0.066,1.593,0.139,2.326,0.16c0.733,0.021,1.578,0.064,2.38,0.035
								c0.802-0.029,1.632-0.082,2.497-0.157c0.324-0.028,0.837-0.071,1.228-0.119s0.844-0.126,1.259-0.202
								c0.831-0.15,1.684-0.31,2.514-0.502c0.831-0.192,1.653-0.445,2.466-0.706c0.813-0.26,1.62-0.526,2.409-0.851
								c0.789-0.325,1.5-0.651,2.299-1.027c0.299-0.141,0.79-0.379,1.101-0.538c0.311-0.159,0.414-0.229,0.748-0.421
								c0.335-0.192,0.983-0.57,1.33-0.776c0.92-0.545,1.851-1.082,2.686-1.652s1.626-1.16,2.399-1.724
								c0.773-0.564,1.606-1.191,2.274-1.763c0.668-0.572,1.551-1.331,2.062-1.77c0.511-0.44,0.733-0.632,1.06-0.939
								c0.327-0.307,0.732-0.708,0.936-0.914c4.399-4.442,8.792-9.731,12.11-14.702c3.319-4.971,6.003-9.756,8.559-14.716
								s4.581-9.696,6.619-14.621c2.038-4.925,3.716-9.684,5.385-14.605c1.669-4.921,3.057-9.719,4.447-14.676
								c0.696-2.482,1.275-4.917,1.901-7.425c0.313-1.254,0.578-2.464,0.867-3.793c0.109-0.502,0.306-1.329,0.409-1.903
								c0.103-0.574,0.385-1.582,0.434-2.136c1.139-13.048-4.686-24.21-18.076-27.075c-12.79-2.737-22.175,4.566-26.971,16.01
								C678.683,214.607,678.65,214.891,678.481,215.441z"/>
						</g>
					</g>
					<g>
						<path style="fill:#E8916A;" d="M702.923,191.493c12.629,2.295,19.889,13.331,21.199,29.684
							c1.494,18.651-6.659,46.767-17.292,64.436c-16.481-8.402-32.951-17.268-49.287-26.462
							c3.318-15.733,10.655-42.417,19.279-53.393C685.446,194.782,690.294,189.199,702.923,191.493z"/>
					</g>
					<g>
						<path style="fill:#E27144;" d="M706.512,287.443c-0.284-0.024-0.335-0.134-0.539-0.144c-0.663-0.034-0.577-1.319-0.401-1.61
							c1.852-3.07,8.046-18.392,8.373-19.173c1.265-3.019,1.252-1.915,1.753-1.438c0.501,0.477,1.668-1.333,0.39,1.985
							c-1.278,3.317-6.066,14.95-8.597,19.708C707.328,287.075,706.796,287.467,706.512,287.443z"/>
					</g>
					<g>
						<g>
							<path style="fill:#E27144;" d="M658.673,259.378c-0.027-0.053-0.099-0.032-0.168-0.005c-0.769,0.298-0.82-1.131-0.801-1.429
								c0.881-13.83,13.308-44.373,17.362-51.849c4.055-7.475,1.544-1.869,2.259-1.855c0.715,0.015,3.307-3.983-0.576,3.35
								c-1.866,3.523-17.349,39.545-16.818,50.543C659.942,258.353,658.949,259.925,658.673,259.378z"/>
						</g>
						<g>
							<path style="fill:#E27144;" d="M672.635,214.646c-0.54-0.114-0.931-0.234-1.073-0.901c-0.644-3.025-1.354-6.376-1.953-9.382
								c-0.151-0.759,0.241-1.177,0.843-1.303c0.601-0.126,1.129,0.102,1.293,0.857c0.649,2.993,1.347,6.353,1.955,9.38
								c0.154,0.764-0.266,1.071-0.836,1.325C672.792,214.654,672.713,214.662,672.635,214.646z"/>
						</g>
					</g>
					<g>
						<g>
							<g>
								<path style="fill:#F2C9AD;" d="M591.49,196.308c0.077-11.402-7.634-31.262-12.149-38.745
									c-4.515-7.483-10.354-11.739-14.237-9.115c-3.884,2.624,0.642,4.342-0.512,6.95c-2.055-2.9-6.925-6.636-9.656-2.804
									c-2.364,3.316,0.651,6.793,3.122,8.831c-2.031-1.894-5.939-5.369-8.509-2.294c-2.027,2.425,1.109,6.902,2.698,9.041
									c-2.271-1.134-4.64-0.646-5.366,1.811c-0.562,1.903,0.063,3.691,0.81,4.901c-2.392,2.383-6.729-1.044-4.256,7.294
									c1.534,5.171,8.333,21.512,17.69,27.156C570.481,214.979,590.291,212.026,591.49,196.308z"/>
							</g>
						</g>
					</g>
					<g>
						<g>
							<g>
								<g>
									<path style="fill:#3E4870;" d="M601.233,212.19c-9.627,8.255-19.98,15.03-32.247,18.5c-2.54-2.084-4.31-5.048-5.104-8.226
										c12.295-4.315,23.466-10.414,33.906-18.182C599.849,206.567,601.016,209.111,601.233,212.19z"/>
								</g>
							</g>
						</g>
						<g>
							<g>
								<g>
									<g>
										<g>
											<g>
												<g>
													<path style="fill:#3E4870;" d="M579.677,209.161c-4.84,2.377-6.713,7.868-4.336,12.708
														c2.377,4.84,7.868,6.714,12.708,4.337c4.84-2.377,6.713-7.868,4.336-12.708
														C590.008,208.657,584.517,206.783,579.677,209.161z"/>
												</g>
											</g>
										</g>
									</g>
								</g>
							</g>
						</g>
						<g>
							<g>
								<g>
									<g>
										<g>
											<g>
												<g>
													<path style="fill:#FFFFFF;" d="M577.729,220.695c1.709,3.479,5.667,4.83,9.146,3.121
														c3.48-1.709,4.83-5.667,3.121-9.147c-1.709-3.48-5.667-4.83-9.146-3.12S576.021,217.216,577.729,220.695z"/>
												</g>
											</g>
										</g>
									</g>
								</g>
							</g>
						</g>
					</g>
					<g>
						<g>
							<path style="fill:#EF9F6A;" d="M667.386,298.313c0.658,0.517,0.708,0.345,0.696-0.104c-0.034-1.215,1.904,0.877-0.048-2.073
								c-1.952-2.95-8.782-11.53-12.714-14.628c2.753-0.131,5.597,0.554,8.405,1.209c0.55,0.128,1.188-0.172,1.355-0.777
								c0.167-0.605-0.214-1.218-0.761-1.363c-4.127-1.093-8.054-1.579-12.285-1.272c-0.525,0.038-0.766,0.445-0.971,0.821
								c-0.206,0.376,0.232,1.106,0.477,1.263c4.729,3.03,12.518,12.896,14.534,15.846
								C668.09,300.185,666.728,297.797,667.386,298.313z"/>
						</g>
					</g>
				</g>
				<g>
					<g>
						<g>
							<g>
								<g>
									<g>
										<path style="fill:#F2C9AD;" d="M407.752,286.021c0,0-3.317-7.975-5.834-16.072c-2.099-6.751,1.313-12.064,1.313-12.064
											c3.908,5.515,5.201,7.855,7.309,11.12c0,0,2.289,0.019,5.873-1.352c3.584-1.371,16.017-5.982,17.759-3.54
											c3.983,5.583-11.489,11.525-11.489,11.525s16.448-6.532,18.644-2.243c1.776,3.47-11.139,12.518-11.139,12.518
											s12.901-8,14.275-2.422c1.461,5.928-12.387,10.376-12.387,10.376s11.175-1.31,11.439,0.94
											c0.381,3.241-4.254,7.155-13.731,10.35C420.079,308.427,407.752,286.021,407.752,286.021z"/>
									</g>
								</g>
							</g>
						</g>
					</g>
				</g>
			</g>
		</g>
	</g>
</g>
</svg>
